<?xml version="1.0" encoding="UTF-8" standalone="no"?>
<svg
   width="200"
   height="200"
   version="1.1"
   id="svg8"
   sodipodi:docname="SatellaText-logo-black.svg"
   inkscape:version="1.4.2 (f4327f4, 2025-05-13)"
   xmlns:inkscape="http://www.inkscape.org/namespaces/inkscape"
   xmlns:sodipodi="http://sodipodi.sourceforge.net/DTD/sodipodi-0.dtd"
   xmlns="http://www.w3.org/2000/svg"
   xmlns:svg="http://www.w3.org/2000/svg">
  <defs
     id="defs8" />
  <sodipodi:namedview
     id="namedview8"
     pagecolor="#ffffff"
     bordercolor="#000000"
     borderopacity="0.25"
     inkscape:showpageshadow="2"
     inkscape:pageopacity="0.0"
     inkscape:pagecheckerboard="true"
     inkscape:deskcolor="#d1d1d1"
     inkscape:zoom="4.125"
     inkscape:cx="99.878788"
     inkscape:cy="100"
     inkscape:window-width="1920"
     inkscape:window-height="1027"
     inkscape:window-x="-8"
     inkscape:window-y="-8"
     inkscape:window-maximized="1"
     inkscape:current-layer="svg8" />
  <path
     id="path1"
     style="fill:#ff2a2a;stroke:none;stroke-width:5"
     d="M 22.138481 119.80576 C 21.370501 113.21012 20.9851 106.56781 20.9851 99.911 C 20.9851 92.758467 21.43005 85.622787 22.313396 78.545957 " />
  <path
     id="path13"
     style="fill:none;stroke:none;stroke-width:5"
     d="M 28.321621 151.03031 C 25.375432 141.29206 23.311036 131.33057 22.138481 121.26031 " />
  <path
     id="path17"
     style="fill:none;stroke:none;stroke-width:5"
     d="m 171.77164,151.27272 c -0.16284,0.54348 -0.32838,1.08624 -0.49664,1.62825 -22.313,10.069 -46.524,15.286 -71.015,15.286 v 0 c -24.659,0 -49.032,-5.2883 -71.511,-15.523 -0.144463,-0.46323 -0.286923,-0.92698 -0.427379,-1.39124" />
  <path
     id="path16"
     style="fill:none;stroke:none;stroke-width:5"
     d="M 177.85801 121.56237 C 176.69281 131.53543 174.65793 141.39713 171.77164 151.0303 " />
  <path
     id="path12"
     style="fill:none;stroke:none;stroke-width:5"
     d="M 177.68935 78.701704 C 178.57755 85.788015 179.0234 92.931119 179.0234 100.091 C 179.0234 106.78955 178.63314 113.47332 177.85801 120.10782 " />
  <path
     id="path11"
     style="fill:none;stroke:none;stroke-width:5"
     d="M 171.68835 48.976567 C 174.48794 58.231243 176.49115 67.687522 177.68935 77.247159 " />
  <path
     id="path19"
     style="fill:none;stroke:none;stroke-width:5"
     d="m 28.167642,48.960884 c 0.185086,-0.620906 0.373707,-1.240868 0.565858,-1.859853 22.313,-10.069 46.524,-15.286 71.015,-15.286 24.659,0 49.032,5.2883 71.511,15.523 0.14497,0.464851 0.28792,0.930226 0.42885,1.396112" />
  <path
     id="path18"
     style="fill:#ff0000;stroke:none;stroke-width:5"
     d="M 22.313396 77.091412 C 23.490943 67.657636 25.447532 58.328438 28.167642 49.203308 " />
  <path
     d="m 36.649,65.03903 h 126.69"
     id="path2"
     style="fill:none;stroke:none;stroke-width:5" />
  <path
     d="m 36.649,134.47212 h 126.69"
     id="path4"
     style="fill:none;stroke:none;stroke-width:5" />
  <path
     id="path14"
     style="fill:none;stroke:none;stroke-width:5"
     d="M 100.08984 100 L 163.345 100 " />
  <path
     id="path24"
     style="fill:none;stroke:none;stroke-width:5"
     d="M 100.00976 100 L 100.08984 100 " />
  <path
     id="path23"
     style="fill:none;stroke:none;stroke-width:5"
     d="M 36.655 100 L 100.00976 100 " />
  <path
     style="fill:#5555ff;stroke:none;stroke-width:0.121212;stroke-dasharray:none;stroke-opacity:1"
     d="m 21.67817,76.918975 -1.71577,-0.228143 0.207957,-1.496931 c 0.990121,-7.127181 2.595052,-15.144137 4.329217,-21.625326 0.671251,-2.508703 1.269036,-4.639881 1.32841,-4.735951 0.05937,-0.09607 1.063277,0.121535 2.230894,0.483565 1.742517,0.540284 2.117007,0.741982 2.089829,1.12557 -0.01821,0.257033 -0.639405,2.812786 -1.380431,5.679453 -0.741026,2.866667 -1.675362,6.848485 -2.076301,8.848485 -0.656076,3.27269 -1.964702,11.236332 -1.964702,11.956189 0,0.322999 -0.57784,0.321687 -3.049103,-0.0069 z"
     id="path20" />
  <path
     style="fill:#5555ff;stroke:none;stroke-width:0.121212;stroke-dasharray:none;stroke-opacity:1"
     d="m 175.15827,76.201702 c -0.90476,-7.069535 -3.09311,-17.491384 -5.19901,-24.759929 -0.35178,-1.214175 -0.40142,-1.674333 -0.18823,-1.744666 0.15927,-0.05254 1.18006,-0.362306 2.26843,-0.688369 l 1.97886,-0.59284 0.98453,3.549627 c 2.1939,7.909821 4.87594,21.237362 4.87594,24.229387 0,0.706943 -0.0128,0.713364 -1.75758,0.880424 -0.96666,0.09256 -1.99156,0.224693 -2.27754,0.293634 -0.46859,0.112957 -0.53632,-0.0024 -0.6854,-1.167268 z"
     id="path21" />
  <path
     style="fill:#5555ff;stroke:none;stroke-width:0.121212;stroke-dasharray:none;stroke-opacity:1"
     d="M 36.848485,65.090909 V 62.666667 H 100 163.15152 v 2.424242 2.424243 H 100 36.848485 Z"
     id="path22" />
  <path
     style="fill:#ff2a2a;stroke:none;stroke-width:0.121212;stroke-dasharray:none;stroke-opacity:1"
     d="m 19.4265,116.66667 c -1.069036,-11.57329 -1.034139,-23.269226 0.10286,-34.47388 0.202339,-1.993966 0.409136,-3.66664 0.459551,-3.717054 0.05041,-0.05041 1.140127,0.04031 2.421585,0.201607 1.959399,0.24663 2.311135,0.355844 2.211777,0.686751 -0.262303,0.873588 -0.877378,8.735955 -1.105058,14.125704 -0.269856,6.38818 -0.0069,16.127912 0.597505,22.129192 0.200455,1.99045 0.331857,3.6516 0.292005,3.69146 -0.108849,0.10885 -3.345168,0.55803 -4.060273,0.56354 l -0.623245,0.005 z"
     id="path25" />
  <path
     style="fill:#ff2a2a;stroke:none;stroke-width:0.121212;stroke-dasharray:none;stroke-opacity:1"
     d="M 36.848485,100 V 97.575758 H 68.363636 99.878788 V 100 102.42424 H 68.363636 36.848485 Z"
     id="path26" />
  <path
     style="fill:#8dd35f;stroke:none;stroke-width:0.121212;stroke-dasharray:none;stroke-opacity:1"
     d="m 100.12121,100 v -2.424242 h 31.51515 31.51516 V 100 v 2.42424 h -31.51516 -31.51515 z"
     id="path27" />
  <path
     style="fill:#8dd35f;stroke:none;stroke-width:0.121212;stroke-dasharray:none;stroke-opacity:1"
     d="m 176.91928,119.89699 c -0.62773,-0.0877 -1.19918,-0.2173 -1.2699,-0.28801 -0.0707,-0.0707 0.0353,-1.75712 0.23557,-3.74756 0.65546,-6.5145 0.89588,-15.13932 0.61212,-21.959244 -0.23725,-5.702271 -0.79441,-12.846945 -1.10775,-14.205206 -0.0692,-0.3 -0.0965,-0.549381 -0.0606,-0.55418 0.0359,-0.0048 1.11704,-0.147483 2.4026,-0.317076 l 2.33737,-0.308352 0.27812,2.559501 c 0.66501,6.119947 0.77604,8.115614 0.90442,16.25647 0.13172,8.352817 -0.0115,12.451547 -0.68821,19.696967 l -0.28869,3.09091 -1.10686,-0.0324 c -0.60877,-0.0178 -1.62045,-0.10414 -2.24818,-0.19183 z"
     id="path28" />
  <path
     style="fill:#ffff00;stroke:none;stroke-width:0.121212;stroke-dasharray:none;stroke-opacity:1"
     d="m 25.74832,150.70825 c -0.132218,-0.48953 -0.686566,-2.52643 -1.231884,-4.52643 -1.767823,-6.48364 -3.965785,-17.6389 -4.519714,-22.93879 l -0.167797,-1.60545 1.661295,-0.16232 c 0.913712,-0.0893 1.954986,-0.21957 2.313941,-0.28952 0.586228,-0.11425 0.665531,-0.0454 0.779257,0.67687 0.06964,0.44223 0.411454,2.7123 0.759594,5.0446 1.040374,6.96978 3.109411,16.47495 4.693022,21.55978 0.266855,0.85685 0.437951,1.63434 0.380214,1.72776 -0.05774,0.0934 -0.570467,0.2909 -1.1394,0.43885 -0.568933,0.14794 -1.541508,0.42553 -2.161278,0.61686 l -1.126854,0.34787 z"
     id="path29" />
  <path
     style="fill:#ffff00;stroke:none;stroke-width:0.121212;stroke-dasharray:none;stroke-opacity:1"
     d="M 36.848485,134.42424 V 132 H 100 163.15152 v 2.42424 2.42424 H 100 36.848485 Z"
     id="path30" />
  <path
     style="fill:#ffff00;stroke:none;stroke-width:0.121212;stroke-dasharray:none;stroke-opacity:1"
     d="m 171.89725,150.92144 c -1.12318,-0.34588 -2.0805,-0.74392 -2.12737,-0.88452 -0.0469,-0.14061 0.3444,-1.82917 0.8695,-3.75235 1.91457,-7.01225 3.3209,-13.88707 4.37839,-21.40366 0.26011,-1.84883 0.5057,-3.38447 0.54576,-3.41253 0.0401,-0.0281 1.09246,0.0594 2.33868,0.19442 l 2.26584,0.24544 -0.16628,1.59133 c -0.27239,2.60672 -1.49905,9.80999 -2.43114,14.2763 -0.85328,4.0887 -3.12483,12.94636 -3.46111,13.49626 -0.12245,0.20022 -0.74243,0.10194 -2.21227,-0.35069 z"
     id="path31" />
  <path
     style="fill:#000000;stroke:none;stroke-width:0.121212;stroke-dasharray:none;stroke-opacity:1"
     d="m 90.30303,170.29385 c -21.342201,-1.35063 -42.162715,-6.41098 -61.074864,-14.84402 -2.244083,-1.00065 -2.430325,-1.13774 -2.732903,-2.01171 -0.178588,-0.51584 -0.277645,-1.06053 -0.220127,-1.21042 0.05752,-0.14989 0.796415,-0.46508 1.641994,-0.70042 0.845578,-0.23534 1.672745,-0.53776 1.838149,-0.67203 0.208757,-0.16947 0.618142,-0.0949 1.338566,0.2437 1.882601,0.88493 7.032969,2.9949 9.87198,4.04429 15.769154,5.8288 31.87435,9.22167 49.060015,10.33544 5.537501,0.35887 20.47226,0.14561 25.6146,-0.36576 17.389,-1.72925 32.04974,-5.24452 47.63229,-11.42102 4.972,-1.97077 6.18182,-2.51376 6.18182,-2.77452 0,-0.16721 2.14552,0.37453 4.29225,1.08379 0.21757,0.0719 0.18282,0.41853 -0.13595,1.35633 l -0.42821,1.25977 -2.4095,1.07146 c -17.56495,7.8108 -36.79175,12.6353 -57.31859,14.38272 -4.07398,0.34681 -18.930431,0.48952 -23.15152,0.2224 z"
     id="path32" />
  <path
     style="fill:#000000;stroke:none;stroke-width:0.121212;stroke-dasharray:none;stroke-opacity:1"
     d="m 28.242424,48.836685 c -2.403694,-0.717759 -2.381613,-0.684653 -1.72385,-2.584554 0.274132,-0.791814 0.519228,-0.967427 2.709592,-1.941442 27.70532,-12.320049 59.620532,-17.196703 90.044564,-13.758835 17.557,1.983913 35.47733,6.854998 51.4991,13.998428 2.24413,1.00056 2.43032,1.137612 2.73291,2.011603 0.17858,0.515839 0.27764,1.060527 0.22012,1.210416 -0.0575,0.149889 -0.79641,0.465079 -1.64199,0.700421 -0.84558,0.235342 -1.67275,0.537756 -1.83815,0.67203 -0.20876,0.16947 -0.61814,0.09494 -1.33856,-0.243704 -6.24683,-2.936353 -16.80965,-6.676958 -25.06922,-8.877744 -9.98476,-2.66047 -19.06457,-4.246023 -30.26118,-5.284328 -4.5791,-0.424638 -23.05727,-0.424638 -27.636366,0 -17.908567,1.660732 -33.553845,5.335814 -49.188434,11.554384 -5.238261,2.083488 -6.157744,2.50707 -6.249069,2.878783 -0.05953,0.242317 -0.586639,0.164059 -2.259467,-0.335458 z"
     id="path33" />
  <path
     style="fill:#ffcc00;stroke-width:0.121212"
     d="m 24.897181,147.08857 c -2.690638,-10.1888 -5.402028,-24.87352 -4.671544,-25.30079 0.142566,-0.0834 1.137042,-0.22532 2.209945,-0.3154 l 1.950734,-0.16377 0.686014,4.55782 c 1.122862,7.46018 3.221411,17.3105 4.759595,22.34093 0.259108,0.84737 0.471105,1.63477 0.471105,1.74978 0,0.16623 -3.667167,1.4368 -4.146958,1.4368 -0.06707,0 -0.633567,-1.93742 -1.258891,-4.30537 z"
     id="path3" />
  <path
     style="fill:#ffcc00;stroke-width:0.121212"
     d="M 36.848485,134.42424 V 132 H 100 163.15152 v 2.42424 2.42424 H 100 36.848485 Z"
     id="path5" />
  <path
     style="fill:#ffdd55;stroke-width:0.121212"
     d="m 171.33333,150.62733 c -0.78922,-0.27512 -1.39394,-0.63111 -1.39394,-0.82061 0,-0.18408 0.59428,-2.65681 1.32062,-5.49495 1.61483,-6.3099 2.57471,-10.99413 3.6033,-17.5842 l 0.78518,-5.0306 1.44848,0.0626 c 0.79667,0.0345 1.78317,0.11749 2.19222,0.18453 l 0.74374,0.12187 -0.20482,1.75488 c -0.76933,6.59147 -3.32785,18.98142 -5.30586,25.69426 -0.44467,1.50908 -0.53323,1.63488 -1.13858,1.61723 -0.36102,-0.0105 -1.28367,-0.2378 -2.05034,-0.50505 z"
     id="path6" />
  <path
     style="fill:#ffdd55;stroke-width:0.121212"
     d="m 25.95085,150.57559 c -0.120432,-0.31677 -0.82207,-3.01677 -1.559195,-6 -2.620302,-10.6047 -4.695608,-22.2236 -4.041652,-22.62777 0.285953,-0.17673 3.717698,-0.59385 3.86273,-0.46951 0.05034,0.0432 0.398717,2.0191 0.774178,4.39099 1.185767,7.4908 2.924687,15.83725 4.374568,20.99702 0.40552,1.44315 0.682521,2.76668 0.615559,2.94118 -0.116556,0.30374 -2.813701,1.34402 -3.484655,1.34402 -0.177411,0 -0.421101,-0.25917 -0.541533,-0.57593 z"
     id="path7" />
  <path
     style="fill:#ffdd55;stroke-width:0.121212"
     d="M 36.848485,134.42424 V 132 H 100 163.15152 v 2.42424 2.42424 H 100 36.848485 Z"
     id="path8" />
</svg>
